REM MD5 0d82f734d95f6812ee4fd7fac035f826
FILE "Official U.S. PlayStation Magazine Demo Disc 45 (USA).bin" BINARY
  TRACK 01 MODE2/2352
    INDEX 01 00:00:00
  TRACK 02 AUDIO
    INDEX 00 24:54:42
    INDEX 01 24:56:42
  TRACK 03 AUDIO
    INDEX 00 25:49:32
    INDEX 01 25:51:32
REM LEADOUT 25:57:28
